<?xml version="1.0" encoding="utf-8"?>
<!-- Generator: Adobe Illustrator 16.0.0, SVG Export Plug-In . SVG Version: 6.00 Build 0)  -->
<!DOCTYPE svg PUBLIC "-//W3C//DTD SVG 1.1//EN" "http://www.w3.org/Graphics/SVG/1.1/DTD/svg11.dtd">
<svg version="1.1" id="Capa_1" xmlns="http://www.w3.org/2000/svg" xmlns:xlink="http://www.w3.org/1999/xlink" x="0px" y="0px"
	 width="606.997px" height="236.776px" viewBox="0 0 606.997 236.776" enable-background="new 0 0 606.997 236.776"
	 xml:space="preserve">
<g>
	<defs>
		<rect id="SVGID_1_" width="606.997" height="236.776"/>
	</defs>
	<clipPath id="SVGID_2_">
		<use xlink:href="#SVGID_1_"  overflow="visible"/>
	</clipPath>
	<path clip-path="url(#SVGID_2_)" fill="#FFFFFF" d="M0,117.54c4.037,0.003,8.075,0.033,12.112,0
		c2.807-0.024,5.613-0.162,8.419-0.194c1.031-0.011,2.064,0.194,3.095,0.178c0.412-0.006,0.887-0.273,1.192-0.567
		c0.104-0.101-0.183-0.671-0.36-0.988c-1.341-2.413-2.686-4.824-4.055-7.222c-2.2-3.853-4.438-7.684-6.623-11.547
		c-1.9-3.36-3.719-6.767-5.629-10.122c-1.114-1.956-2.358-3.838-3.483-5.788c-0.134-0.233-0.009-0.866,0.201-1.005
		c1.025-0.676,2.094-1.299,3.207-1.815c0.248-0.115,0.917,0.175,1.08,0.458c2.366,4.113,4.69,8.251,7.002,12.396
		c1.459,2.615,2.841,5.273,4.327,7.872c2.999,5.246,6.037,10.47,9.083,15.688c0.459,0.786,1.143,1.25,2.156,1.243
		c4.715-0.032,9.431-0.01,14.146-0.016c3.362-0.005,6.724-0.013,10.085-0.042c2.583-0.022,5.165-0.12,7.746-0.112
		c2.988,0.009,5.975,0.113,8.963,0.143c0.715,0.007,1.01,0.241,0.956,0.985c-0.057,0.796-0.099,1.611,0.01,2.395
		c0.125,0.902-0.264,1.245-1.061,1.332c-0.317,0.035-0.636,0.074-0.954,0.076c-5.873,0.049-11.745,0.109-17.618,0.134
		c-7.29,0.03-14.58,0.042-21.87,0.023c-0.833-0.002-1.306,0.304-1.701,0.994c-2.832,4.954-5.721,9.879-8.525,14.849
		c-3.112,5.514-6.149,11.07-9.228,16.602c-1,1.798-2.021,3.584-3.052,5.364c-0.683,1.18-1.204,1.306-2.343,0.626
		c-0.102-0.06-0.192-0.141-0.293-0.204c-2.587-1.614-2.56-1.599-1.073-4.192c2.539-4.43,5.032-8.885,7.558-13.319
		c2.961-5.199,5.932-10.391,8.908-15.581c1.038-1.81,2.075-3.621,3.167-5.398c0.502-0.816,0.192-1.073-0.594-1.153
		c-0.119-0.013-0.24-0.002-0.36-0.002c-7.999,0.001-15.998,0.001-23.998,0.006c-0.197,0-0.395,0.042-0.593,0.064
		C0,118.98,0,118.26,0,117.54"/>
	<path clip-path="url(#SVGID_2_)" fill="#FFFFFF" d="M25.516,170.021c0.414-0.032,0.762-0.083,1.111-0.083
		c3.04-0.009,6.08,0.01,9.12-0.019c0.779-0.008,1.121,0.252,1.48,1.014c1.198,2.54,2.536,5.017,3.893,7.479
		c0.878,1.593,1.828,3.153,2.841,4.665c1.151,1.716,2.337,3.418,3.634,5.024c2.37,2.935,4.661,5.964,7.296,8.646
		c4.175,4.251,8.549,8.299,13.557,11.619c4.5,2.982,8.92,6.096,13.899,8.238c3.854,1.656,7.747,3.25,11.71,4.618
		c3.694,1.274,7.48,2.306,11.27,3.27c2.178,0.553,4.438,0.803,6.672,1.109c2.049,0.28,4.107,0.567,6.169,0.646
		c2.894,0.11,5.796-0.007,8.694,0.043c2.032,0.034,4.063,0.289,6.092,0.262c3.261-0.043,6.52-0.349,9.78-0.339
		c3.501,0.011,7.001,0.304,10.504,0.381c1.985,0.046,3.975-0.071,5.961-0.159c1.867-0.082,3.734-0.34,5.599-0.312
		c4.091,0.061,8.195,0.546,12.267,0.338c15.893-0.811,31.79-0.176,47.683-0.354c10.263-0.115,20.528-0.07,30.793-0.071
		c11.788-0.002,23.577,0.016,35.365,0.044c4.348,0.01,8.695,0.052,13.042,0.122c1.697,0.026,3.393,0.251,5.088,0.233
		c1.733-0.019,3.464-0.307,5.197-0.331c3.638-0.056,7.277-0.059,10.916,0.004c1.984,0.034,3.968,0.351,5.951,0.344
		c2.055-0.007,4.108-0.333,6.166-0.37c3.356-0.06,6.718-0.046,10.075,0.028c2.259,0.05,4.514,0.39,6.769,0.369
		c5.461-0.051,10.92-0.264,16.382-0.348c1.263-0.019,2.532,0.334,3.795,0.314c4.334-0.071,8.666-0.299,13-0.329
		c2.297-0.017,4.598,0.392,6.893,0.362c4.59-0.06,9.176-0.39,13.764-0.413c3.342-0.018,6.685,0.411,10.025,0.4
		c4.213-0.013,8.423-0.374,12.634-0.399c10.747-0.067,21.495,0.003,32.242-0.048c6.835-0.032,13.671,0.066,20.506-0.008
		c1.372-0.015,2.747-0.289,4.109-0.513c2.51-0.411,5.024-0.813,7.514-1.331c2.362-0.491,4.727-1.021,7.035-1.716
		c3.763-1.132,7.532-2.271,11.197-3.673c2.849-1.089,5.607-2.467,8.291-3.928c2.534-1.379,4.96-2.973,7.358-4.583
		c2.997-2.014,6.098-3.93,8.821-6.272c3.337-2.871,6.331-6.139,9.471-9.239c0.452-0.445,0.926-0.877,1.322-1.368
		c1.986-2.462,4.075-4.853,5.893-7.434c2.463-3.499,4.774-7.109,7.023-10.751c0.908-1.471,1.434-3.175,2.236-4.72
		c0.229-0.441,0.813-0.979,1.245-0.988c3.511-0.08,7.025-0.045,10.822-0.045c-0.921,1.922-1.763,3.676-2.601,5.43
		c-0.889,1.862-1.733,3.747-2.678,5.582c-0.726,1.409-1.499,2.806-2.382,4.12c-2.539,3.78-5.064,7.574-7.752,11.247
		c-1.604,2.191-3.544,4.13-5.258,6.242c-3.131,3.854-6.955,6.984-10.72,10.145c-4.875,4.097-10.168,7.641-15.784,10.662
		c-3.3,1.775-6.561,3.671-10.009,5.104c-3.8,1.579-7.774,2.751-11.711,3.98c-2.644,0.826-5.342,1.49-8.037,2.136
		c-1.426,0.342-2.896,0.494-4.35,0.72c-2.829,0.438-5.66,0.869-8.49,1.304c-0.272,0.042-0.544,0.132-0.817,0.139
		c-4.311,0.11-8.62,0.226-12.932,0.308c-4.195,0.08-8.392,0.141-12.588,0.175c-3.462,0.028-6.926,0.059-10.388-0.007
		c-4.747-0.09-9.491-0.341-14.238-0.381c-2.666-0.023-5.335,0.372-8.001,0.346c-4.185-0.041-8.367-0.373-12.552-0.4
		c-2.946-0.019-5.893,0.353-8.84,0.384c-2.065,0.021-4.132-0.35-6.198-0.349c-4.898,0.003-9.795,0.163-14.693,0.181
		c-2.83,0.009-5.661-0.227-8.488-0.191c-3.946,0.049-7.891,0.276-11.836,0.368c-1.553,0.036-3.108-0.105-4.662-0.134
		c-4.626-0.084-9.252-0.2-13.878-0.212c-3.131-0.01-6.261,0.206-9.39,0.197c-4.308-0.012-8.615-0.189-12.923-0.199
		c-1.706-0.004-3.411,0.313-5.12,0.372c-1.23,0.044-2.467-0.132-3.701-0.146c-4.544-0.054-9.088-0.105-13.632-0.112
		c-2.903-0.005-5.806,0.11-8.708,0.094c-2.311-0.013-4.623-0.232-6.933-0.197c-2.865,0.044-5.726,0.32-8.591,0.371
		c-2.047,0.035-4.097-0.174-6.147-0.21c-4.541-0.083-9.084-0.187-13.625-0.172c-5.473,0.018-10.944,0.185-16.417,0.223
		c-11.814,0.083-23.628,0.15-35.443,0.161c-2.615,0.003-5.232-0.383-7.847-0.372c-3.979,0.017-7.956,0.273-11.936,0.324
		c-1.664,0.021-3.331-0.313-4.998-0.335c-4.199-0.053-8.4-0.049-12.599-0.001c-1.142,0.014-2.283,0.4-3.42,0.378
		c-2.902-0.061-5.801-0.35-8.703-0.37c-3.43-0.026-6.862,0.206-10.293,0.194c-5.822-0.02-11.644-0.134-17.465-0.224
		c-4.253-0.065-8.512-0.04-12.756-0.277c-2.39-0.134-4.75-0.757-7.133-1.085c-1.616-0.221-3.281-0.162-4.868-0.493
		c-2.83-0.59-5.661-1.243-8.413-2.118c-4.42-1.405-8.871-2.79-13.135-4.595c-4.852-2.054-9.446-4.66-13.985-7.383
		c-4.186-2.512-8.051-5.441-11.823-8.456c-4.204-3.358-8.311-6.906-11.603-11.261c-2.721-3.603-5.594-7.09-8.3-10.704
		c-1.039-1.388-1.815-2.977-2.688-4.488c-1.477-2.555-3.007-5.084-4.382-7.692c-1.2-2.275-2.223-4.644-3.303-6.98
		C25.44,170.601,25.516,170.334,25.516,170.021"/>
	<path clip-path="url(#SVGID_2_)" fill="#FFFFFF" d="M25.708,66.022c0.576-1.235,0.958-2.15,1.419-3.024
		c1.631-3.093,3.195-6.226,4.958-9.244c2.724-4.665,5.63-9.219,9.182-13.323c2.181-2.521,4.211-5.181,6.503-7.593
		c1.801-1.896,3.847-3.575,5.879-5.233c3.167-2.584,6.379-5.117,9.644-7.576c1.485-1.117,3.119-2.046,4.73-2.985
		c2.538-1.48,5.088-2.943,7.679-4.326c2.412-1.286,4.838-2.567,7.344-3.649c2.136-0.922,4.378-1.616,6.605-2.308
		c4.169-1.295,8.341-2.59,12.553-3.733c2.019-0.549,4.142-0.701,6.201-1.12c5.808-1.184,11.736-0.777,17.592-1.348
		c1.946-0.19,3.935,0.104,5.904,0.095c3.065-0.015,6.129-0.137,9.194-0.142c2.434-0.003,4.87,0.153,7.304,0.145
		c3.626-0.012,7.252-0.148,10.878-0.158c9.224-0.025,18.448-0.003,27.673-0.013c10.547-0.01,21.094-0.047,31.642-0.048
		c11.39-0.002,22.781,0.042,34.171,0.032c9.271-0.009,18.543-0.093,27.814-0.098c10.271-0.006,20.543,0.053,30.815,0.053
		c2.812-0.001,5.622-0.167,8.435-0.163c3.63,0.005,7.26,0.152,10.891,0.15c3.157-0.002,6.314-0.164,9.473-0.191
		c4.543-0.039,9.088-0.001,13.632-0.034c3.128-0.022,6.258-0.152,9.387-0.152c3.212-0.001,6.425,0.114,9.638,0.15
		c2.403,0.026,4.808,0.025,7.212,0.006c6.189-0.05,12.379-0.152,18.569-0.168c11.167-0.029,22.335-0.009,33.503-0.011
		c10.146-0.001,20.293-0.007,30.439-0.007c5.516-0.001,11.031,0.053,16.546-0.003c4.841-0.049,9.612,0.47,14.36,1.348
		c2.032,0.375,4.101,0.568,6.116,1.015c5.221,1.159,10.291,2.804,15.324,4.635c6.642,2.416,12.727,5.861,18.781,9.409
		c5.479,3.21,10.439,7.094,15.069,11.419c1.828,1.707,3.769,3.316,5.43,5.172c2.382,2.66,4.624,5.453,6.798,8.288
		c1.974,2.576,3.847,5.237,5.635,7.947c2.59,3.925,5.071,7.92,6.786,12.338c0.418,1.078,1.016,2.086,1.633,3.331
		c-3.843,0-7.354,0.016-10.865-0.031c-0.281-0.003-0.646-0.39-0.819-0.687c-1.89-3.249-3.66-6.571-5.649-9.757
		c-1.4-2.242-3.009-4.368-4.664-6.435c-2.232-2.788-4.486-5.574-6.938-8.167c-2.368-2.504-4.873-4.913-7.543-7.086
		c-2.979-2.424-6.146-4.638-9.354-6.755c-3.939-2.598-7.921-5.139-12.403-6.787c-4.31-1.585-8.539-3.392-12.852-4.968
		c-1.55-0.566-3.236-0.772-4.87-1.09c-4.083-0.796-8.17-1.57-12.26-2.332c-0.585-0.109-1.192-0.099-1.789-0.145
		c-1.625-0.126-3.247-0.288-4.874-0.366c-1.416-0.067-2.836-0.052-4.255-0.052c-14.596-0.002-29.19-0.018-43.785,0.012
		c-4.23,0.008-8.46,0.173-12.69,0.22c-3.427,0.039-6.854,0.013-10.282,0.008c-3.294-0.005-6.587-0.028-9.88-0.028
		c-2.854,0-5.71,0.007-8.564,0.035c-4.584,0.045-9.166,0.146-13.75,0.153c-3.253,0.006-6.507-0.162-9.761-0.151
		c-8.354,0.028-16.708,0.139-25.062,0.167c-12.423,0.043-24.846,0.05-37.269,0.057c-15.996,0.009-31.991,0.002-47.986,0.003
		c-16.466,0.001-32.933-0.008-49.399,0.013c-3.15,0.004-6.3,0.191-9.45,0.179c-6.19-0.022-12.379-0.174-18.568-0.183
		c-17.703-0.027-35.405-0.034-53.108,0.015c-3.457,0.009-6.914,0.288-10.368,0.487c-0.584,0.033-1.148,0.336-1.734,0.433
		c-1.085,0.179-2.176,0.328-3.27,0.436c-3.801,0.374-7.452,1.415-11.138,2.345c-5.829,1.469-11.35,3.7-16.814,6.165
		c-5.83,2.63-11.167,6.021-16.259,9.838c-1.966,1.474-3.994,2.891-5.801,4.544c-2.358,2.158-4.525,4.525-6.772,6.804
		c-0.589,0.597-1.175,1.197-1.756,1.803c-4.533,4.725-8.311,10.005-11.515,15.705c-1.087,1.933-2.108,3.903-3.239,5.808
		c-0.227,0.383-0.821,0.773-1.242,0.769c-1.096-0.009-2.186-0.282-3.285-0.358c-0.742-0.052-1.496,0.036-2.243,0.09
		C29.308,65.732,27.696,65.866,25.708,66.022"/>
	<path clip-path="url(#SVGID_2_)" fill="#FFFFFF" d="M383.16,66.796c0.438-0.051,0.75-0.119,1.062-0.118
		c9.077,0.013,18.156-0.064,27.231,0.112c2.625,0.05,5.25,0.761,7.848,1.3c1.692,0.35,3.316,1.016,5.004,1.393
		c1.646,0.367,2.621,1.623,3.793,2.603c0.776,0.648,1.426,1.472,2.033,2.29c1.412,1.903,1.829,4.166,2.076,6.442
		c0.229,2.127,0.418,4.271,0.41,6.408c-0.011,2.657-0.247,5.314-0.369,7.971c-0.017,0.353,0.074,0.71,0.108,1.065
		c0.399,4.053-0.187,7.821-3.12,10.927c-0.93,0.986-1.906,1.945-2.714,3.027c-1.766,2.368-4.28,3.153-6.999,3.198
		c-6.356,0.106-12.717,0.01-19.074,0.045c-3.045,0.017-6.086,0.202-9.13,0.206c-2.496,0.003-4.994-0.133-7.489-0.258
		c-0.24-0.012-0.66-0.378-0.663-0.585c-0.038-2.245-0.017-4.49,0.004-6.736c0.029-3.291,0.085-6.583,0.103-9.875
		c0.021-3.868,0.032-7.736,0.014-11.604c-0.024-4.759-0.085-9.517-0.126-14.276C383.151,69.193,383.16,68.054,383.16,66.796
		 M404.339,104.112c0.004,0.079,0.008,0.159,0.011,0.238c4.208-0.23,8.43-0.323,12.619-0.742c2.416-0.242,4.595-1.513,6.076-3.429
		c1.694-2.193,2.375-4.851,2.482-7.653c0.113-2.944-0.503-5.771-1.276-8.561c-0.312-1.121-0.88-2.237-1.578-3.171
		c-2.45-3.277-6.09-4.528-9.894-4.712c-6.218-0.301-12.459-0.112-18.69-0.134c-0.973-0.003-1.484,0.412-1.47,1.442
		c0.04,3.028,0.086,23.187-0.005,25.517c-0.038,0.965,0.407,1.227,1.304,1.218C397.392,104.093,400.865,104.112,404.339,104.112"/>
	<path clip-path="url(#SVGID_2_)" fill="#FFFFFF" d="M311.546,75.03c-5.327-0.098-9.376,1.682-12.185,5.564
		c-1.381,1.908-2.206,4.283-2.975,6.551c-0.946,2.793-1.649,5.676-2.304,8.554c-0.412,1.81-0.671,3.676-0.774,5.53
		c-0.218,3.928-0.271,7.866-0.46,11.797c-0.014,0.293-0.562,0.794-0.873,0.801c-1.627,0.041-3.258-0.067-4.888-0.081
		c-0.863-0.008-1.728,0.114-2.59,0.099c-1.42-0.024-1.729-0.488-1.407-1.867c0.107-0.458,0.132-0.948,0.118-1.42
		c-0.126-4.233,0.113-8.44,0.729-12.633c0.346-2.353,0.389-4.754,0.807-7.09c0.367-2.053,0.981-4.076,1.645-6.059
		c0.599-1.787,1.329-3.544,2.155-5.238c1.282-2.63,2.803-5.105,4.642-7.42c2.868-3.61,6.782-5.405,10.957-6.785
		c3.606-1.192,7.286-1.156,11.065-0.684c4.379,0.546,8.207,2.163,11.561,4.889c2.479,2.015,4.123,4.719,5.616,7.545
		c1.837,3.476,2.938,7.145,3.672,10.978c0.586,3.061,1.382,6.081,1.984,9.139c0.306,1.554,0.465,3.147,0.558,4.73
		c0.205,3.532,0.314,7.071,0.49,10.606c0.039,0.772-0.289,1.151-1.02,1.139c-1.314-0.023-2.627-0.121-3.941-0.143
		c-0.791-0.013-1.586,0.021-2.372,0.1c-1.028,0.103-1.442-0.251-1.517-1.269c-0.306-4.246-0.517-8.504-0.997-12.731
		c-0.371-3.272-1.177-6.464-2.143-9.645c-0.822-2.706-1.687-5.38-3.184-7.717c-1.085-1.693-2.668-3.152-4.269-4.408
		C317.169,75.917,314.331,74.71,311.546,75.03"/>
	<path clip-path="url(#SVGID_2_)" fill="#FFFFFF" d="M562.7,149.301c0.108,1.402,0.192,2.702,0.313,3.998
		c0.094,1.016-0.59,0.949-1.246,0.949c-4.672-0.001-9.345-0.003-14.017-0.003c-6.079,0.001-12.158,0.004-18.238,0.006
		c-0.316,0-0.633,0-1.232,0c0.666-1.282,1.204-2.4,1.817-3.478c2.381-4.19,4.802-8.357,7.177-12.551
		c3.382-5.974,6.732-11.965,10.104-17.943c3.313-5.872,6.626-11.745,9.961-17.605c0.963-1.694,2.04-3.324,2.995-5.023
		c1.74-3.097,3.383-6.25,5.152-9.329c1.87-3.25,3.838-6.444,5.772-9.657c0.198-0.329,0.455-0.622,0.843-1.147
		c1.121,1.908,2.148,3.629,3.149,5.365c2.483,4.308,4.988,8.604,7.422,12.941c2.066,3.685,4.037,7.425,6.073,11.128
		c0.4,0.726,0.877,1.418,1.395,2.064c0.174,0.218,0.587,0.245,0.891,0.359c0.103-0.286,0.29-0.571,0.292-0.858
		c0.017-2.205-0.312-15-0.068-15.879c0.075-0.272,0.994-0.419,1.521-0.408c0.246,0.005,0.673,0.514,0.688,0.811
		c0.074,1.476,0.02,13.467-0.24,17.968c-0.176,3.054,1.043,5.529,2.465,8.01c2.414,4.212,4.858,8.407,7.247,12.634
		c1.356,2.397,2.632,4.843,3.937,7.271c0.069,0.129,0.063,0.3,0.123,0.606c-1.73,0-3.395,0.052-5.051-0.044
		c-0.341-0.02-0.742-0.541-0.959-0.92c-1.592-2.785-3.137-5.597-4.711-8.392c-1.825-3.239-3.662-6.474-5.499-9.707
		c-0.571-1.008-1.362-1.533-2.607-1.524c-6.239,0.046-12.48,0.016-18.721,0.033c-1.732,0.005-3.466,0.117-5.197,0.113
		c-2.783-0.008-5.566-0.111-8.349-0.094c-1.229,0.008-2.218,0.255-2.947,1.656c-2.012,3.861-4.331,7.56-6.49,11.346
		c-1.924,3.374-3.773,6.791-5.699,10.164c-1.059,1.854-2.227,3.646-3.304,5.488c-0.195,0.334-0.343,0.839-0.227,1.163
		c0.082,0.228,0.646,0.395,0.996,0.396c4.317,0.028,8.634,0.021,12.951,0.021c3.478,0,6.955-0.005,10.432-0.001
		C562.005,149.232,562.395,149.281,562.7,149.301 M555.303,116.496c0.668,0.079,29.438,0.111,31.675,0.094
		c0.951-0.007,1.246-0.42,0.807-1.292c-0.143-0.284-0.28-0.571-0.44-0.844c-1.314-2.247-2.649-4.481-3.947-6.737
		c-1.521-2.643-3.011-5.305-4.519-7.957c-1.485-2.61-2.961-5.225-4.471-7.82c-0.738-1.273-1.546-2.506-2.321-3.757
		c-0.16,0.008-0.319,0.017-0.479,0.025C566.209,97.575,560.81,106.942,555.303,116.496"/>
	<path clip-path="url(#SVGID_2_)" fill="#FFFFFF" d="M334.547,121.931c1,0,2.001-0.025,3,0.007c0.951,0.032,1.521,0.32,1.356,1.52
		c-0.297,2.162-0.361,4.354-0.621,6.522c-0.485,4.039-0.834,8.109-1.622,12.091c-0.915,4.617-2.133,9.184-3.426,13.712
		c-0.886,3.101-2.483,5.931-4.644,8.332c-2.127,2.366-4.853,3.924-7.864,4.958c-2.673,0.918-5.414,1.303-8.244,1.493
		c-2.763,0.187-5.474-0.007-8.107-0.592c-3.604-0.799-7.039-2.097-9.746-4.857c-2.975-3.035-5.342-6.417-6.656-10.493
		c-0.88-2.728-2.019-5.395-2.645-8.178c-0.764-3.394-1.246-6.867-1.605-10.33c-0.435-4.195-0.597-8.42-0.915-12.629
		c-0.071-0.938,0.124-1.399,1.196-1.396c2.624,0.009,5.249-0.127,7.872-0.083c0.354,0.006,0.922,0.68,0.996,1.111
		c0.166,0.965-0.103,2.021,0.143,2.949c0.343,1.297,0.062,2.507,0.039,3.769c-0.054,2.988,0.158,5.999,0.497,8.974
		c0.243,2.138,0.742,4.268,1.347,6.337c0.849,2.898,1.711,5.819,2.915,8.579c1.598,3.667,4.444,6.054,8.392,7.123
		c1.934,0.523,3.836,0.992,5.858,0.866c5.54-0.348,9.694-2.82,12.452-7.723c1.665-2.96,2.874-6.086,3.641-9.348
		c0.625-2.656,0.976-5.404,1.155-8.13c0.29-4.408,0.349-8.832,0.481-13.25c0.034-1.122,0.867-1.245,1.636-1.313
		C332.461,121.863,333.507,121.931,334.547,121.931"/>
	<path clip-path="url(#SVGID_2_)" fill="#FFFFFF" d="M245.638,170.54c-4.249,0.225-7.943-0.566-11.438-2.228
		c-3.674-1.746-6.062-4.831-8.073-8.206c-1.209-2.029-2.315-4.151-3.18-6.345c-0.747-1.896-1.21-3.93-1.58-5.943
		c-0.465-2.529-0.664-5.106-1.056-7.651c-0.853-5.553-0.953-11.143-0.949-16.744c0.001-0.932,0.36-1.311,1.259-1.307
		c2.279,0.008,4.558,0.003,6.837-0.009c0.835-0.004,1.251,0.345,1.22,1.223c-0.074,2.072-0.229,4.149-0.14,6.216
		c0.102,2.379,0.401,4.752,0.672,7.12c0.28,2.438,0.545,4.882,0.974,7.295c0.323,1.822,0.813,3.627,1.379,5.392
		c0.62,1.936,1.249,3.898,2.165,5.703c1.807,3.558,4.975,5.467,8.75,6.308c2.353,0.524,4.794,0.621,7.117-0.256
		c2.286-0.863,4.222-2.248,5.543-4.356c1.865-2.978,3.072-6.216,3.672-9.676c0.535-3.087,1.099-6.17,1.558-9.269
		c0.211-1.432,0.259-2.895,0.27-4.344c0.008-1.029,0.292-1.553,1.43-1.521c2.196,0.058,4.395-0.002,6.591,0.061
		c0.268,0.008,0.745,0.472,0.75,0.73c0.048,2.513,0.274,5.061-0.05,7.533c-0.555,4.232-1.383,8.437-2.255,12.62
		c-0.787,3.778-2.621,7.097-4.8,10.272c-1.588,2.313-3.372,4.414-5.999,5.375C252.771,169.825,249.149,170.983,245.638,170.54"/>
	<path clip-path="url(#SVGID_2_)" fill="#FFFFFF" d="M224.24,113.86c-1.199,0-2.4,0.04-3.598-0.011
		c-1.258-0.053-1.583-0.529-1.331-1.741c0.065-0.311,0.1-0.631,0.113-0.949c0.149-3.657,0.099-7.334,0.481-10.966
		c0.494-4.693,0.953-9.394,2.218-13.994c0.97-3.527,2.131-6.938,3.969-10.087c0.813-1.393,1.735-2.771,2.842-3.931
		c1.608-1.685,3.234-3.503,5.209-4.647c2.218-1.284,4.787-2.057,7.292-2.719c1.728-0.456,3.604-0.428,5.416-0.465
		c2.424-0.05,4.745,0.605,6.907,1.627c2.029,0.96,4.106,1.956,5.864,3.319c3.031,2.35,5.634,5.175,6.954,8.89
		c0.883,2.483,1.793,4.992,2.289,7.567c0.463,2.396,0.402,4.894,0.554,7.348c0.054,0.865,0.046,1.734,0.087,2.6
		c0.031,0.633-0.182,0.957-0.881,0.949c-2.318-0.024-4.637-0.023-6.956-0.003c-0.691,0.006-0.911-0.257-1.039-0.957
		c-0.584-3.199-1.139-6.413-1.947-9.559c-0.591-2.297-1.439-4.55-2.399-6.722c-0.767-1.737-2.378-2.737-4.103-3.438
		c-3.509-1.427-7.141-1.225-10.694-0.373c-2.118,0.508-4.027,1.682-5.519,3.38c-2.311,2.629-3.697,5.715-4.415,9.107
		c-0.551,2.602-1.101,5.21-1.488,7.839c-0.396,2.691-0.622,5.409-0.869,8.12c-0.223,2.438-0.413,4.881-0.545,7.326
		c-0.134,2.496-0.096,2.498-2.612,2.499c-0.6,0-1.199,0-1.799,0V113.86z"/>
	<path clip-path="url(#SVGID_2_)" fill="#FFFFFF" d="M146.207,122.369c2.638,0,5.111-0.012,7.583,0.005
		c1.293,0.01,11.037,35.5,11.571,37.356c0.04,0.139,0.169,0.252,0.466,0.676c0.212-0.721,0.476-1.202,0.475-1.683
		c-0.004-2.555-0.007-31.563,0.012-35.487c0.001-0.284,0.321-0.809,0.501-0.812c2.82-0.053,5.642-0.037,8.519-0.037
		c-0.11,2.399-0.316,44.983-0.23,45.531c0.163,1.025-0.133,1.4-1.19,1.383c-4.139-0.072-8.278-0.179-12.418-0.212
		c-0.925-0.009-1.475-0.215-1.744-1.191C159.029,165.272,147.342,126.123,146.207,122.369"/>
	<path clip-path="url(#SVGID_2_)" fill="#FFFFFF" d="M446.852,113.348c0.218-1.046,0.375-1.965,0.603-2.866
		c0.735-2.908,1.527-5.802,2.238-8.716c0.572-2.345,1.03-4.717,1.593-7.064c0.378-1.574,0.885-3.118,1.275-4.69
		c0.553-2.223,1.033-4.465,1.579-6.691c0.425-1.728,0.936-3.436,1.35-5.167c0.376-1.574,0.65-3.172,1.009-4.751
		c0.48-2.109,0.962-4.22,1.54-6.303c0.083-0.297,0.694-0.601,1.082-0.632c1.113-0.089,2.237-0.025,3.357-0.048
		c2.232-0.046,4.467-0.084,6.698-0.179c0.942-0.04,1.349,0.347,1.542,1.254c0.563,2.645,1.2,5.274,1.813,7.908
		c0.654,2.806,1.328,5.608,1.968,8.418c0.654,2.872,1.271,5.753,1.916,8.627c1.111,4.95,2.214,9.903,3.358,14.846
		c0.382,1.651,0.869,3.278,1.328,4.911c0.271,0.967-0.033,1.473-1.086,1.459c-2.285-0.031-4.57-0.124-6.852-0.253
		c-0.287-0.016-0.738-0.362-0.799-0.627c-0.53-2.317-0.965-4.655-1.473-6.977c-0.711-3.252-1.479-6.491-2.189-9.743
		c-0.411-1.886-0.728-3.792-1.141-5.677c-0.592-2.702-1.247-5.39-1.847-8.09c-0.368-1.652-0.666-3.318-1.038-4.968
		c-0.066-0.293-0.338-0.539-0.516-0.806c-0.249,0.254-0.649,0.47-0.721,0.767c-0.527,2.194-0.976,4.407-1.472,6.609
		c-0.588,2.614-1.202,5.222-1.794,7.835c-0.199,0.878-0.375,1.761-0.549,2.644c-0.512,2.606-1.002,5.216-1.528,7.819
		c-0.672,3.326-1.383,6.645-2.054,9.972c-0.185,0.923-0.609,1.337-1.623,1.3c-2.076-0.075-4.158-0.018-6.237-0.027
		C447.798,113.44,447.411,113.389,446.852,113.348"/>
	<path clip-path="url(#SVGID_2_)" fill="#FFFFFF" d="M132.435,74.584c-0.089,0.429-0.252,0.858-0.255,1.289
		c-0.025,3.207,0.003,32.295,0.061,36.645c0.013,0.997-0.193,1.43-1.309,1.377c-1.993-0.096-3.996-0.086-5.991-0.017
		c-1.092,0.037-1.377-0.399-1.343-1.411c0.117-3.544,0.252-38.873,0.258-43.399c0.002-1.828,0.586-2.246,2.402-2.15
		c2.207,0.116,4.424,0.055,6.637,0.053c1.581-0.002,3.163-0.054,4.744-0.048c1.186,0.004,0.988,1.162,1.189,1.762
		c0.829,2.474,1.46,5.015,2.155,7.534c0.61,2.214,1.183,4.439,1.82,6.646c0.625,2.163,1.319,4.307,1.967,6.464
		c0.763,2.544,1.513,5.091,2.264,7.638c0.559,1.892,1.115,3.783,1.664,5.678c0.582,2.013,1.133,4.036,1.738,6.042
		c0.386,1.279,0.815,2.547,1.281,3.8c0.385,1.034,0.187,1.423-0.902,1.426c-1.838,0.006-3.685-0.144-5.512-0.007
		c-1.393,0.105-1.857-0.681-2.165-1.71c-1.131-3.781-2.25-7.565-3.315-11.365c-0.881-3.147-1.64-6.328-2.524-9.475
		c-0.841-2.994-1.823-5.948-2.647-8.947c-0.481-1.751-0.768-3.555-1.153-5.333c-0.173-0.801-0.373-1.596-0.562-2.393
		C132.77,74.65,132.602,74.618,132.435,74.584"/>
	<path clip-path="url(#SVGID_2_)" fill="#FFFFFF" d="M433.496,169.016c0.216-0.917,0.389-1.677,0.572-2.434
		c0.615-2.528,1.215-5.063,1.856-7.585c0.719-2.829,1.504-5.642,2.209-8.475c0.423-1.697,0.716-3.425,1.122-5.127
		c0.566-2.375,1.211-4.732,1.773-7.108c0.565-2.383,1.058-4.782,1.608-7.168c0.567-2.463,1.171-4.919,1.755-7.379
		c0.063-0.269,0.027-0.608,0.18-0.801c0.296-0.375,0.685-0.941,1.051-0.954c2.438-0.088,4.879-0.027,7.317-0.066
		c1.085-0.017,0.93,0.688,0.794,1.295c-0.412,1.848-0.92,3.673-1.333,5.52c-0.52,2.324-0.974,4.663-1.473,6.991
		c-0.914,4.258-1.833,8.515-2.764,12.769c-0.657,3.015-1.34,6.025-2.008,9.038c-0.304,1.37,0.001,1.773,1.388,1.775
		c5.278,0.01,10.558,0.034,15.836-0.001c3.244-0.022,6.488-0.146,9.732-0.221c1.31-0.029,1.611,0.302,1.852,1.628
		c0.38,2.096,0.846,4.176,1.27,6.263c0.056,0.272,0.073,0.553,0.124,0.827c0.18,0.972-0.16,1.355-1.203,1.341
		c-4.356-0.063-8.716-0.068-13.074-0.071c-9.116-0.009-18.233-0.002-27.351-0.005C434.378,169.068,434.024,169.039,433.496,169.016"
		/>
	<path clip-path="url(#SVGID_2_)" fill="#FFFFFF" d="M383.177,169.07c-0.026-0.563-0.04-44.279-0.075-45.868
		c-0.018-0.752,0.232-1.087,1.025-1.097c2.436-0.031,4.871-0.081,7.304-0.191c1.021-0.047,1.451,0.25,1.393,1.34
		c-0.182,3.324-0.284,40.885-0.209,44.099c0.04,1.715,0.044,1.717-1.702,1.718C388.366,169.07,385.819,169.07,383.177,169.07"/>
	<path clip-path="url(#SVGID_2_)" fill="#FFFFFF" d="M493.803,169.06c-3.012,0-5.96,0.024-8.905-0.035
		c-0.319-0.007-0.821-0.447-0.908-0.774c-0.409-1.551-0.71-3.131-1.038-4.703c-0.396-1.899-0.778-3.801-1.171-5.701
		c-0.409-1.973-0.817-3.947-1.237-5.918c-0.414-1.938-0.849-3.874-1.265-5.813c-0.382-1.784-0.759-3.57-1.125-5.358
		c-0.555-2.717-1.084-5.439-1.652-8.153c-0.553-2.641-1.14-5.274-1.711-7.912c-0.066-0.311-0.095-0.636-0.206-0.93
		c-0.539-1.443-0.322-1.811,1.19-1.827c2.074-0.022,4.147,0.006,6.222-0.012c1.009-0.009,1.411,0.4,1.605,1.452
		c0.472,2.564,1.165,5.088,1.735,7.634c0.394,1.752,0.7,3.523,1.104,5.271c0.41,1.776,0.914,3.531,1.339,5.305
		c0.487,2.036,0.932,4.083,1.396,6.124c0.509,2.229,1.028,4.456,1.527,6.687c0.493,2.207,0.967,4.418,1.45,6.627
		c0.534,2.442,1.069,4.885,1.597,7.327C493.791,168.534,493.78,168.727,493.803,169.06"/>
	<path clip-path="url(#SVGID_2_)" fill="#FFFFFF" d="M94.019,122.394c3.208,0,6.082,0.006,8.955-0.003
		c0.893-0.003,0.91,0.531,0.839,1.206c-0.093,0.883-0.382,42.181-0.382,45.381c0.033-0.019-0.065,0.08-0.169,0.086
		c-2.54,0.166-9.133-0.149-9.133-0.149C94.173,162.724,94.019,126.564,94.019,122.394"/>
	<rect x="94.233" y="67.148" clip-path="url(#SVGID_2_)" fill="#FFFFFF" width="9.404" height="46.656"/>
	<path clip-path="url(#SVGID_2_)" fill="#FFFFFF" d="M166.149,67.292c0.584-0.128,1.075-0.319,1.568-0.329
		c2.148-0.042,4.298-0.059,6.446-0.03c1.185,0.016,1.327,0.357,1.091,1.516c-0.152,0.748-0.077,1.546-0.069,2.322
		c0.055,4.819,0.008,41.055,0.132,42.236c0.07,0.67-0.166,0.904-0.744,0.906c-2.554,0.011-5.109,0.001-7.663,0.005
		c-0.773,0.001-0.76-0.53-0.762-1.072C166.132,108.933,166.149,69.993,166.149,67.292"/>
	<path clip-path="url(#SVGID_2_)" fill="#FFFFFF" d="M123.85,122.411c1.058,0,2.24,0.008,3.423-0.002
		c1.319-0.011,2.638-0.021,3.955-0.063c0.703-0.022,1.001,0.209,0.975,0.971c-0.101,2.905-0.198,5.813-0.199,8.721
		c-0.001,3.183,0.134,6.366,0.158,9.549c0.04,5.185,0.039,10.369,0.052,15.554c0.007,2.93,0.011,5.857,0.006,8.786
		c-0.001,0.787,0.033,1.588-0.104,2.355c-0.056,0.315-0.5,0.779-0.798,0.803c-2.137,0.176-4.281,0.284-6.425,0.352
		c-0.782,0.023-1.25-0.217-1.241-1.271c0.108-11.784,0.147-23.569,0.196-35.354C123.862,129.397,123.85,125.983,123.85,122.411"/>
	<path clip-path="url(#SVGID_2_)" fill="#FFFFFF" d="M363.874,169.027h-9.487v-12.712c1.807,0,3.646,0.012,5.484-0.005
		c1.066-0.01,2.14-0.142,3.195-0.055c0.348,0.028,0.932,0.565,0.936,0.875c0.048,3.824,0.01,7.649-0.012,11.474
		C363.989,168.715,363.931,168.827,363.874,169.027"/>
	<path clip-path="url(#SVGID_2_)" fill="#FFFFFF" d="M514.777,162.784c0.001,1.756-0.021,3.511,0.012,5.266
		c0.012,0.682-0.172,1.062-0.919,1.055c-2.636-0.026-5.272-0.013-7.907-0.085c-0.255-0.007-0.696-0.506-0.709-0.792
		c-0.073-1.662-0.025-3.328-0.056-4.993c-0.036-1.913-0.074-3.828-0.185-5.737c-0.053-0.887,0.384-1.139,1.121-1.134
		c2.557,0.015,5.112,0.07,7.668,0.058c0.824-0.004,1.002,0.36,0.985,1.094C514.751,159.27,514.776,161.027,514.777,162.784"/>
	<path clip-path="url(#SVGID_2_)" fill="#FFFFFF" d="M193.468,156.504c3.129,0,6.039-0.019,8.948,0.038
		c0.213,0.004,0.595,0.553,0.593,0.847c-0.008,1.838-0.132,3.674-0.163,5.513c-0.034,1.998-0.008,3.997-0.008,6.121
		c-0.012,0.002-0.276,0.096-0.54,0.097c-2.598,0.011-5.197-0.009-7.796,0.017c-0.693,0.007-1.041-0.21-1.039-0.941
		C193.474,164.364,193.468,160.533,193.468,156.504"/>
</g>
</svg>
